<svg  width="848" height="600" xmlns="http://www.w3.org/2000/svg" ><path  d="
 M 421 48 C 431 47, 441, 47, 448, 53
 C 457 60, 461, 68, 467, 75
 C 480 81, 488, 93, 501, 92
 C 507 93, 513, 93, 517, 90
 C 524 78, 529, 68, 536, 59
 C 540 53, 544, 51, 548, 50
 C 597 45, 647, 52, 694, 51
 C 704 53, 710, 62, 712, 69
 C 708 137, 715, 204, 711, 270
 C 717 279, 723, 285, 727, 292
 C 749 307, 764, 326, 786, 338
 C 791 345, 795, 350, 796, 356
 C 794 424, 796, 490, 799, 553
 C 796 561, 790, 564, 785, 564
 C 667 469, 551, 369, 435, 275
 C 414 274, 404, 291, 389, 298
 C 284 392, 178, 472, 75, 561
 C 64 559, 58, 550, 57, 544
 C 61 480, 52, 405, 60, 349
 C 76 333, 92, 322, 105, 310
 C 207 220, 313, 132, 418, 48" fill="rgb(239,243,244)" />
<path  d="
 M 423 49 M 422 50 M 421 50
 L 418 49 C 306 138, 194, 232, 89, 325
 C 31 379, 74, 471, 54, 541
 C 59 550, 64, 558, 71, 559
 C 178 471, 284, 391, 388, 299
 C 404 290, 414, 273, 433, 276
 C 551 368, 667, 468, 782, 563
 C 789 563, 795, 560, 796, 556
 C 795 490, 793, 424, 797, 358
 C 794 350, 790, 345, 786, 340
 C 764 327, 748, 308, 730, 293
 C 722 286, 717, 279, 713, 272
 C 714 204, 707, 137, 712, 72
 C 709 62, 704, 54, 695, 53
 C 647 53, 597, 46, 551, 50
 C 544 52, 540, 53, 537, 56
 C 530 69, 525, 79, 519, 90
 C 513 94, 507, 94, 503, 95
 C 488 94, 480, 82, 469, 77
 C 461 69, 456, 61, 451, 54
 C 442 48, 433, 48, 424, 49" fill="rgb(240,244,245)" />
<path  d="
 M 341 468
 L 342 468 C 365 467, 387, 465, 409, 470
 C 416 475, 417, 481, 418, 487
 C 418 507, 422, 525, 414, 541
 C 410 546, 407, 550, 401, 548
 C 382 550, 365, 547, 346, 549
 C 337 548, 333, 542, 327, 539
 C 319 532, 319, 524, 320, 516
 C 320 497, 315, 470, 339, 467" fill="rgb(210,222,230)" />
<path  d="
 M 343 468 C 316 468, 321, 497, 320, 514
 C 320 524, 320, 531, 325, 537
 C 333 541, 337, 547, 344, 547
 C 365 546, 382, 549, 399, 549
 C 406 548, 410, 546, 412, 542
 C 421 525, 417, 507, 417, 490
 C 416 482, 416, 476, 410, 473
 C 388 466, 366, 468, 344, 469" fill="rgb(214,225,233)" />
<path  d="
 M 459 464 C 479 466, 498, 470, 518, 467
 C 525 469, 528, 471, 530, 475
 C 536 490, 535, 508, 533, 522
 C 532 534, 526, 541, 520, 548
 C 508 552, 497, 551, 487, 552
 C 476 551, 465, 553, 457, 548
 C 451 539, 446, 531, 446, 522
 C 447 505, 444, 492, 446, 479
 C 448 471, 453, 468, 457, 466" fill="rgb(211,220,222)" />
<path  d="
 M 461 465 C 436 473, 450, 501, 446, 519
 C 447 531, 452, 539, 457, 546
 C 477 552, 499, 551, 518, 548
 C 525 540, 531, 533, 532, 525
 C 534 508, 535, 490, 531, 476
 C 527 472, 524, 470, 521, 469
 C 500 470, 481, 468, 463, 465" fill="rgb(215,224,225)" />
<path  d="
 M 377 374 C 387 373, 398, 374, 407, 373
 C 421 385, 421, 402, 423, 417
 C 421 428, 418, 437, 411, 441
 C 387 441, 364, 444, 340, 442
 C 329 441, 321, 433, 316, 424
 C 314 411, 317, 402, 321, 393
 C 327 386, 334, 382, 340, 378
 C 353 375, 364, 374, 376, 375" fill="rgb(207,217,224)" />
<path  d="
 M 379 375 C 366 376, 354, 375, 343, 379
 C 335 382, 328, 387, 323, 391
 C 318 402, 315, 411, 317, 423
 C 322 433, 329, 440, 338, 441
 C 364 443, 387, 440, 409, 441
 C 417 436, 420, 427, 421, 420
 C 424 392, 414, 363, 379, 377" fill="rgb(211,220,227)" />
<path  d="
 M 464 374 M 464 372 M 466 373
 L 468 373 C 485 375, 503, 376, 520, 381
 C 526 387, 535, 389, 536, 398
 C 537 410, 537, 420, 532, 429
 C 527 435, 523, 442, 517, 443
 C 495 442, 473, 446, 454, 442
 C 444 435, 441, 425, 443, 416
 C 440 397, 443, 377, 462, 373" fill="rgb(208,219,225)" />
<path  d="
 M 465 374 C 445 375, 441, 396, 444, 413
 C 443 425, 445, 434, 452, 439
 C 473 445, 495, 441, 514, 443
 C 522 441, 526, 434, 529, 431
 C 536 420, 536, 410, 535, 399
 C 535 390, 526, 388, 522, 384
 C 503 377, 485, 376, 468, 374" fill="rgb(212,223,229)" /></svg>